<svg width="50" height="66" viewBox="0 0 50 66" fill="none" xmlns="http://www.w3.org/2000/svg">
<path fill-rule="evenodd" clip-rule="evenodd" d="M11.5071 52.5821L11.2058 50.4706L10.9045 47.6049C10.8041 47.2529 10.5731 46.5491 10.4526 46.5491C10.4089 46.5491 10.3146 46.4477 10.1807 46.3037C9.8526 45.9509 9.28674 45.3425 8.64493 45.3425C8.2997 45.3425 8.1138 45.3371 7.95503 45.3324C7.69813 45.3249 7.51224 45.3195 6.83726 45.3425C6.31101 45.3604 6.06107 45.4031 5.75121 45.456C5.41802 45.5129 5.01555 45.5816 4.12576 45.6441C3.5232 45.4933 2.25784 45.1313 2.01681 44.89C1.77579 44.6487 1.41426 43.3818 1.26362 42.7785C1.31383 42.5271 1.44439 41.9942 1.5649 41.8735C1.68541 41.7529 2.01681 41.3205 2.16745 41.1194L3.67384 39.4603L5.63215 37.3488L6.23471 36.4438C6.28492 36.1925 6.38534 35.6294 6.38534 35.3881C6.38534 35.0864 6.38534 34.3323 6.83726 33.8798C7.28918 33.4273 9.85004 31.3158 10.1513 31.4666C10.2517 31.2152 10.4225 30.6522 10.302 30.4108C10.1513 30.1092 9.6994 29.3551 9.39813 29.2042C9.28785 29.149 9.05649 28.9928 8.76313 28.7947C8.25501 28.4516 7.56091 27.9829 6.9879 27.696C6.26483 27.334 4.37682 25.5342 3.5232 24.6795L1.5649 21.8138C1.46447 21.7133 1.23349 21.4217 1.11298 21.0597C0.96234 20.6072 0.96234 20.0039 1.11298 19.7023C1.26362 19.4006 1.86617 18.3449 2.01681 18.3449C2.13732 18.3449 2.16745 18.2443 2.16745 18.194L2.77001 17.8924L2.92065 17.7416L3.22193 17.5907L3.67384 17.4399C4.03538 17.3192 4.22619 17.1885 4.2764 17.1383H4.57768V17.2891L4.42704 17.5907C4.2764 17.641 3.91486 17.8019 3.67384 18.0432C3.43282 18.2845 3.27214 18.546 3.22193 18.6465L2.92065 18.8837L3.07129 19.099H3.5232C3.64371 19.099 4.2764 18.9555 4.57768 18.8837L5.18023 18.6465L5.78279 18.4957H6.68662L6.38534 18.7973C5.4313 19.2498 3.58346 20.3357 3.82448 21.0597C4.0655 21.7837 4.22619 22.0652 4.2764 22.1155C5.13002 23.3221 7.7411 26.0369 11.0552 26.4894C11.6361 26.5687 11.7099 25.8165 11.7581 25.3256C11.7727 25.1765 11.7849 25.0514 11.8083 24.9811L6.83726 18.3449C6.13428 16.6355 5.02959 12.9755 6.23471 12.0102C6.18449 14.0212 7.5302 19.0386 13.3147 23.0204C14.4194 20.4061 16.5685 15.1474 16.3275 15.0267C16.4782 13.9709 16.6891 11.8292 16.3275 11.7086C15.8756 11.5577 16.3275 6.42969 18.4365 4.16732L18.2858 4.92145C13.4654 15.63 25.2152 14.1218 26.1191 7.48547L26.2697 7.03299L26.4203 8.23959C26.571 8.69207 26.33 10.2305 24.1607 12.7643C26.2195 12.8146 30.3671 13.1866 30.4876 14.2726C28.5795 13.8704 24.0101 13.7296 20.9973 16.3841C19.3403 17.9427 15.9057 21.7535 15.4237 24.5287V24.8303C16.0262 25.4336 17.382 26.6101 17.9845 26.4894H18.2858L21.2986 24.5287C21.6501 24.3276 22.323 23.865 22.2024 23.6237C22.102 21.5624 22.4736 17.0478 24.7633 15.4792C23.6586 17.4399 22.2627 21.5725 25.5165 22.4171C27.3242 21.5122 31.4215 18.4655 33.3497 13.5185C33.9021 12.6638 34.7055 9.71767 33.5004 4.77062C33.1991 3.66457 32.5363 1.42231 32.2953 1.30165V1L32.5965 1.15082C33.5004 1.4022 35.2478 3.44336 36.2119 10.8036C36.5131 12.3119 39.9176 10.8941 44.497 5.82639L43.4425 8.84289C44.9991 8.84289 48.263 9.778 48.8655 13.5185C47.0579 10.7031 41.5445 7.78712 33.9523 18.6465C32.5965 20.4061 29.1921 24.2572 26.4203 25.5844C22.9556 27.2435 17.9845 30.4108 17.9845 30.8633V31.3158C17.9845 31.4364 18.3988 31.4666 18.5871 31.3158C18.7754 31.165 22.9556 28.9629 24.7633 29.2042C24.7633 29.2042 24.8763 29.2042 24.9139 29.3551C24.9395 29.4575 24.2528 30.8819 23.7034 32.0215C23.4439 32.5598 23.215 33.0346 23.1063 33.2765C22.9398 33.6468 22.5464 33.9444 22.131 34.2586C21.7005 34.5841 21.2465 34.9275 20.9973 35.3881C20.5078 36.293 25.5165 41.5719 25.5165 41.5719C25.6946 41.8672 26.5807 42.2163 27.3768 42.5301C28.4267 42.9438 29.3203 43.296 28.228 43.3818C27.3069 43.4541 27.226 43.5264 27.2126 43.5156C27.1981 43.5038 27.2631 43.3941 26.4203 43.0801C25.8783 42.8782 26.64 43.3352 27.906 44.0949C30.4225 45.605 34.9319 48.311 35.1574 49.4148C35.4963 51.0738 31.3914 54.7841 28.3786 56.3527C26.9341 57.6124 25.1841 59.4242 23.6141 61.0497C21.8005 62.9273 20.227 64.5564 19.6416 64.7989C18.5494 65.2514 16.9301 64.7989 16.9301 64.7989C15.1224 63.9945 11.5071 60.425 11.5071 52.5821ZM10.9724 37.3593C11.4306 37.3593 13.1846 36.3377 12.4933 36.0184C12.0576 35.8977 11.8141 35.9799 11.5378 36.0732C11.3758 36.1279 11.2024 36.1864 10.9724 36.21C10.3502 36.4016 10.1429 36.6808 10.1429 37.1039C10.1429 37.4256 10.3574 37.4058 10.6616 37.3778C10.7576 37.369 10.8625 37.3593 10.9724 37.3593Z" fill="#FFF"/>
</svg>
