<svg width="37" height="50" viewBox="0 0 26 34" fill="none" xmlns="http://www.w3.org/2000/svg">
<path fill-rule="evenodd" clip-rule="evenodd" d="M6.25353 26.791L6.1029 25.7353L5.95226 24.3024C5.90204 24.1265 5.78655 23.7745 5.7263 23.7745C5.70446 23.7745 5.65731 23.7238 5.59034 23.6518C5.4263 23.4755 5.14337 23.1712 4.82246 23.1712C4.64985 23.1712 4.5569 23.1685 4.47751 23.1662C4.34906 23.1625 4.25612 23.1597 3.91863 23.1712C3.6555 23.1802 3.53053 23.2016 3.3756 23.228C3.20901 23.2565 3.00778 23.2908 2.56288 23.3221C2.2616 23.2467 1.62892 23.0657 1.50841 22.945C1.3879 22.8244 1.20713 22.1909 1.13181 21.8892C1.15692 21.7636 1.22219 21.4971 1.28245 21.4368C1.3427 21.3764 1.50841 21.1603 1.58373 21.0597L2.33692 20.2302L3.31607 19.1744L3.61735 18.7219C3.64246 18.5962 3.69267 18.3147 3.69267 18.194C3.69267 18.0432 3.69267 17.6661 3.91863 17.4399C4.14459 17.2137 5.42502 16.1579 5.57566 16.2333C5.62587 16.1076 5.71123 15.8261 5.65098 15.7054C5.57566 15.5546 5.3497 15.1775 5.19906 15.1021C5.14392 15.0745 5.02824 14.9964 4.88156 14.8973C4.62751 14.7258 4.28045 14.4914 3.99395 14.348C3.63242 14.167 2.68841 13.2671 2.2616 12.8397L1.28245 11.4069C1.23224 11.3566 1.11675 11.2108 1.05649 11.0299C0.98117 10.8036 0.98117 10.502 1.05649 10.3511C1.13181 10.2003 1.43309 9.67243 1.50841 9.67243C1.56866 9.67243 1.58373 9.62215 1.58373 9.59701L1.885 9.44619L1.96032 9.37078L2.11096 9.29537L2.33692 9.21995C2.51769 9.15962 2.61309 9.09427 2.6382 9.06913H2.78884V9.14454L2.71352 9.29537C2.6382 9.3205 2.45743 9.40094 2.33692 9.5216C2.21641 9.64226 2.13607 9.77298 2.11096 9.82325L1.96032 9.94187L2.03564 10.0495H2.2616C2.32186 10.0495 2.6382 9.97774 2.78884 9.94187L3.09012 9.82325L3.39139 9.74784H3.84331L3.69267 9.89866C3.21565 10.1249 2.29173 10.6679 2.41224 11.0299C2.53275 11.3918 2.61309 11.5326 2.6382 11.5577C3.06501 12.161 4.37055 13.5185 6.02758 13.7447C6.31807 13.7844 6.35496 13.4083 6.37903 13.1628C6.38634 13.0882 6.39247 13.0257 6.40417 12.9906L3.91863 9.67243C3.56714 8.81775 3.0148 6.98775 3.61735 6.50511C3.59225 7.5106 4.2651 10.0193 7.15737 12.0102C7.70971 10.7031 8.78427 8.07368 8.66376 8.01335C8.73908 7.48547 8.84453 6.41461 8.66376 6.35428C8.4378 6.27887 8.66376 3.71485 9.71823 2.58366L9.64291 2.96072C7.23269 8.315 13.1076 7.56088 13.5595 4.24273L13.6348 4.0165L13.7102 4.6198C13.7855 4.84603 13.665 5.61524 12.5804 6.88217C13.6097 6.90731 15.6835 7.09332 15.7438 7.63629C14.7897 7.43519 12.5051 7.36481 10.9987 8.69207C10.1701 9.47133 8.45286 11.3767 8.21184 12.7643V12.9152C8.51312 13.2168 9.191 13.805 9.49227 13.7447H9.64291L11.1493 12.7643C11.325 12.6638 11.6615 12.4325 11.6012 12.3119C11.551 11.2812 11.7368 9.02388 12.8817 8.23959C12.3293 9.21995 11.6313 11.2863 13.2582 11.7086C14.1621 11.2561 16.2108 9.73276 17.1749 7.25923C17.451 6.83189 17.8527 5.35884 17.2502 2.88531C17.0995 2.33229 16.7681 1.21115 16.6476 1.15082V1L16.7983 1.07541C17.2502 1.2011 18.1239 2.22168 18.6059 5.90181C18.7566 6.65593 20.4588 5.94705 22.7485 3.4132L22.2213 4.92145C22.9996 4.92145 24.6315 5.389 24.9328 7.25923C24.0289 5.85153 21.2722 4.39356 17.4761 9.82325C16.7983 10.7031 15.096 12.6286 13.7102 13.2922C11.9778 14.1218 9.49227 15.7054 9.49227 15.9317V16.1579C9.49227 16.2182 9.6994 16.2333 9.79355 16.1579C9.8877 16.0825 11.9778 14.9815 12.8817 15.1021C12.8817 15.1021 12.9381 15.1021 12.957 15.1775C12.9698 15.2288 12.6264 15.9409 12.3517 16.5108C12.2219 16.7799 12.1075 17.0173 12.0531 17.1383C11.9699 17.3234 11.7732 17.4722 11.5655 17.6293C11.3502 17.7921 11.1232 17.9637 10.9987 18.194C10.7539 18.6465 13.2582 21.2859 13.2582 21.2859C13.3473 21.4336 13.7903 21.6082 14.1884 21.765C14.7134 21.9719 15.1602 22.148 14.614 22.1909C14.1534 22.2271 14.113 22.2632 14.1063 22.2578C14.099 22.2519 14.1315 22.197 13.7102 22.0401C13.4392 21.9391 13.82 22.1676 14.453 22.5475C15.7113 23.3025 17.966 24.6555 18.0787 25.2074C18.2482 26.0369 16.1957 27.8921 14.6893 28.6764C13.967 29.3062 13.0921 30.2121 12.307 31.0248C11.4002 31.9636 10.6135 32.7782 10.3208 32.8995C9.77472 33.1257 8.96504 32.8995 8.96504 32.8995C8.0612 32.4973 6.25353 30.7125 6.25353 26.791ZM5.98621 19.1797C6.21529 19.1797 7.0923 18.6688 6.74665 18.5092C6.52878 18.4488 6.40704 18.4899 6.2689 18.5366C6.18788 18.5639 6.10122 18.5932 5.98621 18.605C5.67512 18.7008 5.57143 18.8404 5.57143 19.052C5.57143 19.2128 5.67871 19.2029 5.83078 19.1889C5.87878 19.1845 5.93125 19.1797 5.98621 19.1797Z" fill="white"/>
</svg>
