<svg width="34" height="45" viewBox="0 0 34 45" fill="none" xmlns="http://www.w3.org/2000/svg">
<path fill-rule="evenodd" clip-rule="evenodd" d="M8.02439 35.4847L7.82297 34.073L7.62156 32.1572C7.55442 31.9219 7.4 31.4514 7.31943 31.4514C7.29024 31.4514 7.22719 31.3836 7.13765 31.2873C6.91831 31.0515 6.54001 30.6447 6.11094 30.6447C5.88013 30.6447 5.75586 30.6411 5.64971 30.638C5.47796 30.6329 5.35369 30.6293 4.90244 30.6447C4.55062 30.6567 4.38352 30.6852 4.17637 30.7206C3.95362 30.7586 3.68456 30.8046 3.08969 30.8464C2.68686 30.7455 1.84091 30.5035 1.67978 30.3422C1.51865 30.1809 1.27695 29.3339 1.17624 28.9306C1.20981 28.7625 1.29709 28.4062 1.37766 28.3256C1.45822 28.2449 1.67978 27.9558 1.78049 27.8214L2.78757 26.7122L4.09677 25.3006L4.49961 24.6956C4.53318 24.5275 4.60031 24.1511 4.60031 23.9898C4.60031 23.7881 4.60031 23.2839 4.90244 22.9814C5.20456 22.6789 6.9166 21.2673 7.11802 21.3681C7.18516 21.2001 7.29929 20.8236 7.21873 20.6623C7.11802 20.4606 6.81589 19.9565 6.61448 19.8556C6.54075 19.8187 6.38608 19.7143 6.18996 19.5818C5.85026 19.3525 5.38623 19.0391 5.00315 18.8473C4.51975 18.6053 3.25754 17.4021 2.68686 16.8307L1.37766 14.9149C1.31052 14.8476 1.1561 14.6527 1.07553 14.4107C0.974823 14.1082 0.974823 13.7049 1.07553 13.5032C1.17624 13.3015 1.57907 12.5957 1.67978 12.5957C1.76035 12.5957 1.78049 12.5285 1.78049 12.4949L2.18332 12.2932L2.28403 12.1924L2.48544 12.0916L2.78757 11.9907C3.02927 11.9101 3.15683 11.8227 3.1904 11.7891H3.39182V11.8899L3.29111 12.0916C3.1904 12.1252 2.9487 12.2327 2.78757 12.3941C2.62644 12.5554 2.51901 12.7302 2.48544 12.7974L2.28403 12.956L2.38474 13.0999H2.68686C2.76743 13.0999 3.1904 13.0039 3.39182 12.956L3.79465 12.7974L4.19748 12.6965H4.80173L4.60031 12.8982C3.9625 13.2007 2.72714 13.9267 2.88828 14.4107C3.04941 14.8947 3.15683 15.0829 3.1904 15.1165C3.76108 15.9232 5.50669 17.7382 7.72227 18.0407C8.11068 18.0937 8.16 17.5908 8.19219 17.2626C8.20197 17.1629 8.21016 17.0793 8.22581 17.0323L4.90244 12.5957C4.43247 11.453 3.69394 9.00609 4.49961 8.36076C4.46604 9.70519 5.3657 13.0595 9.23289 15.7215C9.97141 13.9738 11.4082 10.4581 11.247 10.3774C11.3478 9.67158 11.4887 8.23976 11.247 8.15909C10.9449 8.05826 11.247 4.62996 12.657 3.11748L12.5563 3.62164C9.33359 10.7807 17.1888 9.77241 17.7931 5.33579L17.8938 5.03329L17.9945 5.83995C18.0952 6.14245 17.9341 7.17094 16.4839 8.86492C17.8602 8.89853 20.633 9.14725 20.7136 9.87324C19.438 9.60436 16.3832 9.51025 14.369 11.2849C13.2612 12.3268 10.9651 14.8745 10.6428 16.7298V16.9315C11.0456 17.3348 11.952 18.1213 12.3548 18.0407H12.5563L14.5704 16.7298C14.8054 16.5954 15.2552 16.2862 15.1747 16.1248C15.1075 14.7468 15.3559 11.7286 16.8867 10.6799C16.1482 11.9907 15.2149 14.7535 17.3902 15.3182C18.5987 14.7132 21.338 12.6764 22.6271 9.36908C22.9963 8.7977 23.5334 6.82811 22.7278 3.52081C22.5264 2.78137 22.0832 1.28233 21.9221 1.20166V1L22.1235 1.10083C22.7278 1.26889 23.896 2.63348 24.5405 7.5541C24.7419 8.56242 27.0179 7.6146 30.0795 4.22663L29.3745 6.24328C30.4152 6.24328 32.5972 6.86844 33 9.36908C31.7915 7.48688 28.1056 5.53745 23.0299 12.7974C22.1235 13.9738 19.8475 16.5483 17.9945 17.4357C15.6782 18.5448 12.3548 20.6623 12.3548 20.9648V21.2673C12.3548 21.348 12.6318 21.3681 12.7577 21.2673C12.8836 21.1665 15.6782 19.6943 16.8867 19.8556C16.8867 19.8556 16.9622 19.8556 16.9874 19.9565C17.0045 20.025 16.5454 20.9772 16.1781 21.7391C16.0046 22.099 15.8516 22.4164 15.7789 22.5781C15.6676 22.8257 15.4046 23.0246 15.1269 23.2347C14.8391 23.4523 14.5356 23.6819 14.369 23.9898C14.0417 24.5948 17.3902 28.1239 17.3902 28.1239C17.5093 28.3213 18.1017 28.5547 18.6339 28.7645C19.3359 29.0411 19.9333 29.2765 19.203 29.3339C18.5872 29.3822 18.5331 29.4306 18.5241 29.4233C18.5144 29.4155 18.5579 29.3421 17.9945 29.1322C17.6321 28.9972 18.1413 29.3028 18.9877 29.8107C20.6701 30.8202 23.6848 32.6293 23.8356 33.3672C24.0622 34.4763 21.3179 36.9568 19.3037 38.0055C18.338 38.8476 17.168 40.0589 16.1184 41.1456C14.9059 42.4008 13.854 43.4899 13.4626 43.6521C12.7325 43.9546 11.6499 43.6521 11.6499 43.6521C10.4414 43.1143 8.02439 40.7279 8.02439 35.4847ZM7.66696 25.3077C7.97326 25.3077 9.14589 24.6246 8.68372 24.4112C8.39242 24.3305 8.22964 24.3854 8.04493 24.4478C7.9366 24.4844 7.82073 24.5235 7.66696 24.5393C7.25101 24.6673 7.11236 24.854 7.11236 25.1369C7.11236 25.3519 7.25581 25.3387 7.45914 25.32C7.52332 25.3141 7.59347 25.3077 7.66696 25.3077Z" fill="white" stroke="black"/>
</svg>
